<?xml version="1.0" encoding="utf-8"?>
<!-- Generator: Adobe Illustrator 24.1.0, SVG Export Plug-In . SVG Version: 6.00 Build 0)  -->
<svg version="1.1" id="Layer_1" xmlns="http://www.w3.org/2000/svg" xmlns:xlink="http://www.w3.org/1999/xlink" x="0px" y="0px"
	 viewBox="0 0 32 32" style="enable-background:new 0 0 32 32;" xml:space="preserve">
<style type="text/css">
	.st0{fill-rule:evenodd;clip-rule:evenodd;fill:#1490F0;}
</style>
<path class="st0" d="M11,6.1c-5.5,0-9.9,4.5-9.9,9.9s4.5,9.9,9.9,9.9c1.9,0,3.4-0.6,5-1.4c1.4,0.9,3.2,1.4,5,1.4
	c5.5,0,9.9-4.5,9.9-9.9S26.5,6.1,21,6.1c-1.9,0-3.4,0.6-5,1.4C14.6,6.5,12.8,6.1,11,6.1z M11,8.1c1.1,0,2.2,0.3,3.2,0.7
	c-2,1.9-3.2,4.5-3.2,7.3s1.3,5.5,3.2,7.3c-1,0.4-2,0.7-3.2,0.7c-4.3-0.3-7.9-3.7-7.9-8.2S6.7,8.1,11,8.1z M21,8.1
	c4.5,0,7.9,3.6,7.9,7.9s-3.6,7.9-7.9,7.9c-1.1,0-2.2-0.3-3.2-0.7c2-1.9,3.2-4.5,3.2-7.3s-1.3-5.5-3.2-7.3C18.7,8.2,19.9,8.1,21,8.1z
	"/>
</svg>
