<?xml version="1.0" encoding="utf-8"?>
<!-- Generator: Adobe Illustrator 16.0.0, SVG Export Plug-In . SVG Version: 6.00 Build 0)  -->
<!DOCTYPE svg PUBLIC "-//W3C//DTD SVG 1.1//EN" "http://www.w3.org/Graphics/SVG/1.1/DTD/svg11.dtd">
<svg version="1.1" id="Layer_1" xmlns="http://www.w3.org/2000/svg" xmlns:xlink="http://www.w3.org/1999/xlink" x="0px" y="0px"
	 width="1360px" height="1360px" viewBox="0 0 1360 1360" enable-background="new 0 0 1360 1360" xml:space="preserve">
<path fill="#119DFF" d="M1228.136,100.738l-1085.458,0c-13.995,0-25.34,11.345-25.34,25.34v353.428
	c-0.406,1.799-0.638,3.666-0.638,5.587s0.232,3.788,0.638,5.587v358.063c-0.406,1.799-0.638,3.666-0.638,5.588
	c0,1.921,0.232,3.787,0.638,5.587v351.618c0,13.995,11.345,25.34,25.34,25.34h1085.458c13.995,0,25.34-11.345,25.34-25.34V126.078
	C1253.476,112.083,1242.131,100.738,1228.136,100.738z M522.775,828.992V510.434l318.557,0v318.559H522.775z M841.332,879.672
	v306.525H522.775V879.672H841.332z M168.018,510.434h304.078v318.558H168.018V510.434z M522.775,459.754V151.418h318.557v308.336
	H522.775z M892.012,510.434h310.784v318.559H892.012V510.434z M1202.796,459.754l-310.784,0V151.418l310.784,0V459.754z
	 M472.095,151.418v308.336H168.018V151.418H472.095z M168.018,879.672h304.078v306.525H168.018V879.672z M892.012,1186.197V879.672
	h310.784v306.525H892.012z"/>
<path fill="#09FFFF" d="M208.282,1104.347c13.151-13.15,34.473-13.15,47.622,0c13.153,13.15,13.153,34.473,0,47.623
	c-13.149,13.151-34.471,13.151-47.622,0C195.129,1138.819,195.129,1117.497,208.282,1104.347z"/>
<path fill="#09FFFF" d="M325.674,931.91c28.12-28.129,73.727-28.129,101.854,0c28.12,28.12,28.12,73.725,0,101.847
	c-28.127,28.129-73.734,28.129-101.854,0C297.548,1005.635,297.548,960.03,325.674,931.91z"/>
<path fill="#09FFFF" d="M387.282,1104.347c13.147-13.15,34.471-13.15,47.622,0c13.151,13.15,13.151,34.475,0,47.623
	c-13.15,13.151-34.475,13.151-47.622,0C374.131,1138.821,374.131,1117.497,387.282,1104.347z"/>
<path fill="#119DFF" d="M208.281,925.345c13.149-13.148,34.473-13.148,47.624,0c13.151,13.151,13.151,34.475,0,47.626
	c-13.151,13.148-34.475,13.148-47.624,0C195.132,959.819,195.132,938.496,208.281,925.345z"/>
<circle fill="#119DFF" cx="595.908" cy="949.158" r="33.675"/>
<circle fill="#09FFFF" cx="595.907" cy="1128.158" r="33.675"/>
<path fill="#119DFF" d="M798.722,1073.902c21.554,21.555,21.554,56.511,0,78.067c-21.56,21.558-56.513,21.558-78.069,0
	c-21.557-21.557-21.557-56.513,0-78.067C742.209,1052.349,777.162,1052.349,798.722,1073.902z"/>
<circle fill="#119DFF" cx="231.272" cy="582.929" r="33.674"/>
<path fill="#09FFFF" d="M364.205,630.639c23.534,23.53,23.534,61.688,0,85.224c-23.529,23.53-61.691,23.53-85.221,0
	c-23.534-23.536-23.534-61.694,0-85.224C302.513,607.105,340.675,607.105,364.205,630.639z"/>
<circle fill="#119DFF" cx="231.272" cy="761.929" r="33.675"/>
<circle fill="#119DFF" cx="410.273" cy="761.929" r="33.676"/>
<path fill="#09FFFF" d="M1160.494,244.144c-13.15,13.151-34.473,13.151-47.621,0c-13.152-13.15-13.152-34.473,0-47.623
	c13.148-13.151,34.471-13.151,47.621,0C1173.647,209.671,1173.647,230.993,1160.494,244.144z"/>
<circle fill="#119DFF" cx="957.683" cy="220.332" r="33.675"/>
<path fill="#09FFFF" d="M981.495,423.146c-13.149,13.148-34.473,13.148-47.624,0c-13.15-13.151-13.15-34.475,0-47.625
	c13.151-13.149,34.475-13.149,47.624,0C994.644,388.671,994.644,409.995,981.495,423.146z"/>
<path fill="#119DFF" d="M1076.321,338.152c-16.09,16.091-42.185,16.091-58.28,0c-16.092-16.094-16.092-42.189,0-58.283
	c16.096-16.091,42.19-16.091,58.28,0C1092.413,295.963,1092.413,322.058,1076.321,338.152z"/>
<circle fill="#119DFF" cx="772.868" cy="399.333" r="33.674"/>
<path fill="#119DFF" d="M686.262,304.905c-28.111-28.106-28.111-73.687,0-101.797c28.109-28.106,73.691-28.106,101.796,0
	c28.113,28.11,28.113,73.691,0,101.797C759.953,333.011,714.371,333.011,686.262,304.905z"/>
<path fill="#119DFF" d="M570.055,244.144c-13.148-13.149-13.148-34.473,0-47.624c13.151-13.151,34.475-13.151,47.626,0
	c13.148,13.15,13.148,34.475,0,47.624C604.53,257.293,583.207,257.293,570.055,244.144z"/>
<path fill="#09FFFF" d="M1113.691,789.371c-13.15-13.15-13.15-34.471,0-47.621s34.475-13.15,47.623,0
	c13.151,13.15,13.151,34.471,0,47.621C1148.166,802.525,1126.842,802.525,1113.691,789.371z"/>
<circle fill="#119DFF" cx="1047.183" cy="675.24" r="23.151"/>
<path fill="#119DFF" d="M1082.674,641.393c-21.72-21.716-21.72-56.928,0-78.644c21.713-21.711,56.927-21.711,78.639,0
	c21.721,21.716,21.721,56.928,0,78.644C1139.601,663.104,1104.387,663.104,1082.674,641.393z"/>
<path fill="#09FFFF" d="M934.689,610.374c-13.146-13.151-13.146-34.475,0-47.625c13.152-13.151,34.475-13.151,47.626,0
	c13.148,13.151,13.148,34.475,0,47.625C969.164,623.521,947.842,623.521,934.689,610.374z"/>
<circle fill="#09FFFF" cx="593.867" cy="309.011" r="15.942"/>
<circle fill="#119DFF" cx="958.503" cy="309.012" r="20.059"/>
<circle fill="#119DFF" cx="1137.502" cy="399.333" r="20.059"/>
<circle fill="#09FFFF" cx="1047.182" cy="220.332" r="20.326"/>
<circle fill="#119DFF" cx="321.593" cy="1128.156" r="21.759"/>
<circle fill="#119DFF" cx="686.228" cy="1037.833" r="21.278"/>
<path fill="#119DFF" d="M607.18,1026.563c6.225,6.223,6.225,16.319,0,22.545c-6.226,6.226-16.32,6.226-22.546,0
	s-6.226-16.322,0-22.545C590.86,1020.338,600.955,1020.338,607.18,1026.563z"/>
</svg>
