<svg xmlns="http://www.w3.org/2000/svg" viewBox="0 0 46 46"><g fill="none"><path d="M0 0h46v46H0z"/><path d="M40.616 19.3a16.387 16.387 0 0 0-1.352-3.904 9.836 9.836 0 0 0-4.225-4.015c-6.17-3.152-13.563-4.731-20.021-1.298a23.665 23.665 0 0 0-4.74 3.47 14.357 14.357 0 0 0-3.28 3.934c-1.636 3.205-.982 6.997-.015 10.433a7.81 7.81 0 0 0 1.083 2.555 8.344 8.344 0 0 0 2.63 2.1c2.611 1.526 5.352 2.845 8.089 4.161a13.223 13.223 0 0 0 2.59 1.028 11.867 11.867 0 0 0 3.048.229 8.678 8.678 0 0 0 3.538-.623 8.95 8.95 0 0 0 2.162-1.622l6.115-5.645c2.223-2.053 4.584-4.37 4.83-7.288a10.951 10.951 0 0 0-.452-3.515zm-5.174 2.942c-.29 1.988-1.825 3.679-3.153 4.984a88.579 88.579 0 0 1-3.648 3.367 5.915 5.915 0 0 1-1.32.94 5.617 5.617 0 0 1-2.098.423 7.835 7.835 0 0 1-1.807-.076 9.038 9.038 0 0 1-1.8-.557 31.794 31.794 0 0 1-5.487-2.889 7.104 7.104 0 0 1-1.758-1.487q-.114-.146-.212-.3a5.426 5.426 0 0 1-.622-1.396 11.172 11.172 0 0 1-.476-3.496 6.775 6.775 0 0 1 .752-2.988 9.108 9.108 0 0 1 2.07-2.44 13.848 13.848 0 0 1 3.042-2.08 11.145 11.145 0 0 1 1.363-.556c3.693-1.236 7.762-.478 11.257 1.23a7.12 7.12 0 0 1 2.765 2.381 6.918 6.918 0 0 1 .995 2.566 6.94 6.94 0 0 1 .137 2.374z" stroke="#1d9bfb" stroke-miterlimit="10" stroke-width="2"/><path d="M34.31 17.302a7.12 7.12 0 0 0-2.765-2.382c-3.495-1.709-7.564-2.466-11.257-1.23a11.145 11.145 0 0 0-1.363.556 13.848 13.848 0 0 0-3.043 2.081 9.108 9.108 0 0 0-2.07 2.44 6.775 6.775 0 0 0-.75 2.987 11.172 11.172 0 0 0 .475 3.496 5.426 5.426 0 0 0 .622 1.397q.099.153.212.3a7.104 7.104 0 0 0 1.758 1.486 31.794 31.794 0 0 0 5.486 2.889 9.038 9.038 0 0 0 1.801.558 7.835 7.835 0 0 0 1.807.075 5.617 5.617 0 0 0 2.099-.423 5.915 5.915 0 0 0 1.319-.94 88.299 88.299 0 0 0 3.648-3.366c1.328-1.306 2.863-2.996 3.153-4.985a6.94 6.94 0 0 0-.137-2.373 6.918 6.918 0 0 0-.995-2.566z" stroke="#1d9bfb" stroke-miterlimit="10" stroke-width="2" opacity=".25"/><path d="M25.457 25.996c-1.787.083-3.494-1.142-4.914-2.724a2.032 2.032 0 0 1-.452-.69 2.44 2.44 0 0 1 .028-1.4 3.985 3.985 0 0 1 1.368-2.08 4.888 4.888 0 0 1 1.922-.854 6.99 6.99 0 0 1 5.948.96c1.604 1.233-.197 4.086-1.018 5.142a3.975 3.975 0 0 1-2.882 1.646z" stroke="#1d9bfb" stroke-miterlimit="10" stroke-width="2"/></g></svg>