<svg xmlns="http://www.w3.org/2000/svg" viewBox="0 0 46 46"><path fill="none" d="M0 0h46v46H0z"/><path fill="#1d9bfb" d="M32 20h6v6h-6zM20 14h6v6h-6zM14 20h6v6h-6zM14 32h6v6h-6zM20 32h6v6h-6zM32 32h6v6h-6zM26 20h6v6h-6z"/><path fill="#25fdfc" d="M26 14h6v6h-6zM32 14h6v6h-6zM20 20h6v6h-6zM8 20h6v6H8z"/><path fill="#1d9bfb" d="M14 14h6v6h-6z"/><path fill="#25fdfc" d="M8 14h6v6H8z"/><path fill="#1d9bfb" d="M26 26h6v6h-6zM8 26h6v6H8z"/><path fill="#25fdfc" d="M20 26h6v6h-6zM32 26h6v6h-6zM14 26h6v6h-6zM26 8h6v6h-6z"/><path fill="#1d9bfb" d="M8 8h6v6H8zM20 8h6v6h-6zM32 8h6v6h-6z"/><path fill="#25fdfc" d="M14 8h6v6h-6zM8 32h6v6H8zM26 32h6v6h-6z"/></svg>