<svg id="Layer_1" data-name="Layer 1" xmlns="http://www.w3.org/2000/svg" viewBox="0 0 24 24"><title>Artboard 1</title><g id="Templates"><path d="M17,10.57a3,3,0,0,1,1.18.23,3.11,3.11,0,0,1,1,.64,2.82,2.82,0,0,1,.65,1,3,3,0,0,1-1.6,3.95,3.08,3.08,0,0,1-1.16.23H8a4,4,0,0,1-1.56-.31,4,4,0,0,1,0-7.38A4,4,0,0,1,8,8.57a3.54,3.54,0,0,1,.73.07,4.63,4.63,0,0,1,.72-.87,4.72,4.72,0,0,1,.89-.65,4.58,4.58,0,0,1,1-.41,4.79,4.79,0,0,1,1.13-.14,4.37,4.37,0,0,1,1.64.3,4.55,4.55,0,0,1,1.36.84,4.39,4.39,0,0,1,1,1.27A4.66,4.66,0,0,1,17,10.57Z" style="fill:#0078d7"/></g></svg>