<svg width="16" height="16" viewBox="0 0 16 16" fill="none" xmlns="http://www.w3.org/2000/svg">
    <path fill-rule="evenodd" clip-rule="evenodd"
        d="M7.49524 9.052L8.38624 11.402H9.47724L6.23724 3H5.21724L2.00024 11.402H3.09524L3.93324 9.052H7.49524ZM5.81124 4.453L5.85524 4.588L7.17324 8.162H4.25524L5.56224 4.588L5.60624 4.453L5.64424 4.297L5.67624 4.145L5.69724 4.019H5.72024L5.74424 4.145L5.77324 4.297L5.81124 4.453ZM13.7952 10.464V11.4H14.7552V7.498C14.7552 6.779 14.5752 6.226 14.2162 5.837C13.8572 5.448 13.3272 5.254 12.6282 5.254C12.4292 5.254 12.2272 5.273 12.0222 5.31C11.8172 5.347 11.6222 5.394 11.4392 5.451C11.2562 5.508 11.0912 5.569 10.9442 5.636C10.7972 5.703 10.6832 5.765 10.6012 5.824V6.808C10.8672 6.578 11.1672 6.397 11.5052 6.268C11.8432 6.139 12.1942 6.075 12.5572 6.075C12.7452 6.075 12.9152 6.103 13.0702 6.16C13.2252 6.217 13.3572 6.306 13.4662 6.427C13.5752 6.548 13.6592 6.706 13.7182 6.899C13.7772 7.092 13.8062 7.326 13.8062 7.599L11.9952 7.851C11.6512 7.898 11.3552 7.977 11.1072 8.088C10.8592 8.199 10.6542 8.339 10.4922 8.507C10.3302 8.675 10.2102 8.868 10.1322 9.087C10.0542 9.306 10.0152 9.546 10.0152 9.808C10.0152 10.054 10.0572 10.283 10.1392 10.496C10.2212 10.709 10.3422 10.893 10.5022 11.047C10.6622 11.201 10.8622 11.323 11.1002 11.413C11.3382 11.503 11.6132 11.548 11.9262 11.548C12.3282 11.548 12.6862 11.456 13.0012 11.27C13.3162 11.084 13.5732 10.816 13.7722 10.464H13.7952ZM11.6672 8.721C11.8432 8.657 12.0682 8.607 12.3412 8.572L13.8062 8.367V8.976C13.8062 9.222 13.7652 9.451 13.6832 9.664C13.6012 9.877 13.4862 10.063 13.3402 10.221C13.1942 10.379 13.0192 10.503 12.8162 10.593C12.6132 10.683 12.3902 10.728 12.1482 10.728C11.9612 10.728 11.7952 10.703 11.6532 10.652C11.5112 10.601 11.3922 10.53 11.2962 10.441C11.2002 10.352 11.1272 10.247 11.0762 10.125C11.0252 10.003 11.0002 9.873 11.0002 9.732C11.0002 9.568 11.0182 9.421 11.0552 9.292C11.0922 9.163 11.1602 9.051 11.2572 8.958C11.3542 8.865 11.4912 8.785 11.6672 8.721Z"
        fill="#777777" />
</svg>