<?xml version="1.0" encoding="utf-8"?>
<!-- Generator: Adobe Illustrator 23.0.1, SVG Export Plug-In . SVG Version: 6.00 Build 0)  -->
<svg version="1.1" id="svg" xmlns="http://www.w3.org/2000/svg" xmlns:xlink="http://www.w3.org/1999/xlink" x="0px" y="0px"
	 viewBox="0 0 400 400" style="enable-background:new 0 0 400 400;" xml:space="preserve">
<style type="text/css">
	.st0{fill-rule:evenodd;clip-rule:evenodd;fill:#777777;}
</style>
<g id="svgg">
	<path id="path0" class="st0" d="M32.6,32.6v334.7h334.7V32.6H32.6z M136,84v36h108h108v111.2c0,81.2-0.3,121-0.3,121
		s-39.3-0.2-120.5-0.2H120V244V136H84c-33.3,0-36-0.6-36-8s2.7-8,36-8h36V84c0-33.3,0.6-36,8-36S136,50.7,136,84 M254.9,163.1
		c-21.6,21.8-22.5,23.5-16,30c6.5,6.5,7.6,6.1,20-5.9l13.2-12.8v44c0,55.2,1.6,53.6-53.6,53.6h-44l12.9-13.3
		c12.4-12.8,12.6-13.6,5.6-19.9c-6.9-6.3-8.6-5.3-31,17.3L138.3,280l23.7,23.9c22.4,22.6,24.1,23.5,31,17.3c7-6.4,6.8-7.1-5.6-19.9
		L174.4,288h52c65,0,61.6,3.5,61.6-61.6v-52l13.3,12.9c12.8,12.4,13.6,12.6,19.9,5.6c6.3-6.9,5.3-8.6-16.4-30.1
		C277,135.3,282.4,135.3,254.9,163.1"/>
</g>
</svg>
