<?xml version="1.0" encoding="utf-8"?>
<!-- Generator: Adobe Illustrator 24.1.0, SVG Export Plug-In . SVG Version: 6.00 Build 0)  -->
<svg version="1.1" id="Layer_1" xmlns="http://www.w3.org/2000/svg" xmlns:xlink="http://www.w3.org/1999/xlink" x="0px" y="0px"
	 viewBox="0 0 82.8 122.9" style="enable-background:new 0 0 82.8 122.9;" xml:space="preserve">
<style type="text/css">
	.st0{fill-rule:evenodd;clip-rule:evenodd;fill:#777777;}
</style>
<g>
	<path class="st0" d="M0,20.4c61.9,0,20.9,0,82.8,0V0C20.9,0,61.9,0,0,0L0,20.4L0,20.4z M0,122.9c38.3,0-15.8,0,22.5,0v-20.4
		c-38.4,0,15.8,0-22.5,0L0,122.9L0,122.9z M37.3,88.7c-32.9,0-4.5,0-37.3,0V68.3h37.3V88.7L37.3,88.7z M0,54.6c26,0,30.4,0,56.4,0
		V34.2H0V54.6L0,54.6L0,54.6z"/>
</g>
</svg>
