<?xml version="1.0" encoding="utf-8"?>
<!-- Generator: Adobe Illustrator 24.1.0, SVG Export Plug-In . SVG Version: 6.00 Build 0)  -->
<svg version="1.1" id="Layer_1" xmlns="http://www.w3.org/2000/svg" xmlns:xlink="http://www.w3.org/1999/xlink" x="0px" y="0px"
	 viewBox="0 0 82.8 122.9" style="enable-background:new 0 0 82.8 122.9;" xml:space="preserve">
<style type="text/css">
	.st0{fill-rule:evenodd;clip-rule:evenodd;fill:#777777;}
</style>
<g>
	<path class="st0" d="M0,102.5c61.9,0,20.9,0,82.8,0v20.4c-61.9,0-20.9,0-82.8,0L0,102.5L0,102.5z M0,0c38.3,0-15.8,0,22.5,0v20.4
		c-38.4,0,15.8,0-22.5,0L0,0L0,0z M37.3,34.2c-32.9,0-4.5,0-37.3,0v20.4h37.3V34.2L37.3,34.2z M0,68.3c26,0,30.4,0,56.4,0v20.4H0
		V68.3L0,68.3L0,68.3z"/>
</g>
</svg>
