<svg xmlns="http://www.w3.org/2000/svg" viewBox="0 0 46 46"><path fill="none" d="M0 0h46v46H0z"/><path fill="none" stroke="#1d9bfb" stroke-miterlimit="10" stroke-width="2" d="M23 23v16M27 39h-8M27 23h-8M11 11v24M15 35H7M15 11H7M35 9v24M39 33h-8M39 9h-8"/><path fill="#25fdfc" d="M8 18h6v10H8z"/><path d="M13 19v8H9v-8h4m2-2H7v12h8V17z" fill="#1d9bfb"/><path fill="#25fdfc" d="M20 29h6v4h-6z"/><path d="M25 30v2h-4v-2h4m2-2h-8v6h8v-6z" fill="#1d9bfb"/><path fill="#25fdfc" d="M32 14h6v14h-6z"/><path d="M37 15v12h-4V15h4m2-2h-8v16h8V13z" fill="#1d9bfb"/><path fill="none" stroke="#1d9bfb" stroke-miterlimit="10" stroke-width="2" d="M38 21h-6M14 22H8"/></svg>